<?xml version="1.0" standalone="no"?>
<!DOCTYPE svg PUBLIC "-//W3C//DTD SVG 20010904//EN"
 "http://www.w3.org/TR/2001/REC-SVG-20010904/DTD/svg10.dtd">
<svg version="1.0" xmlns="http://www.w3.org/2000/svg"
 width="512.000000pt" height="512.000000pt" viewBox="0 0 512.000000 512.000000"
 preserveAspectRatio="xMidYMid meet">

<g transform="translate(0.000000,512.000000) scale(0.100000,-0.100000)"
fill="#000000" stroke="none">
<path d="M3305 4215 c-25 -24 -25 -26 -25 -215 0 -189 0 -191 25 -215 l24 -25
511 0 511 0 24 25 c25 24 25 26 25 215 0 189 0 191 -25 215 l-24 25 -511 0
-511 0 -24 -25z m295 -215 l0 -80 -80 0 -80 0 0 80 0 80 80 0 80 0 0 -80z
m320 0 l0 -80 -80 0 -80 0 0 80 0 80 80 0 80 0 0 -80z m320 0 l0 -80 -80 0
-80 0 0 80 0 80 80 0 80 0 0 -80z"/>
<path d="M400 3907 c-49 -16 -133 -102 -148 -153 -17 -60 -17 -2648 0 -2708
16 -55 99 -138 154 -154 32 -9 444 -12 1778 -12 l1736 0 0 480 0 480 480 0
480 0 0 936 c0 695 -3 947 -12 976 -6 22 -31 62 -55 88 -51 57 -108 80 -195
80 l-58 0 0 -56 c0 -31 -5 -75 -12 -98 -16 -55 -99 -138 -154 -154 -59 -17
-1049 -17 -1108 0 -55 16 -138 99 -154 154 -7 23 -12 67 -12 98 l0 56 -1342
-1 c-949 -1 -1353 -4 -1378 -12z m303 -241 c103 -43 128 -177 48 -257 -112
-113 -296 -12 -267 146 18 94 128 150 219 111z m497 -386 l0 -160 80 0 80 0 0
160 0 160 80 0 80 0 0 -160 0 -160 80 0 80 0 0 160 0 160 80 0 80 0 0 -160 0
-160 80 0 80 0 0 160 0 160 80 0 80 0 0 -160 0 -160 80 0 80 0 0 160 0 160 80
0 80 0 0 -158 0 -158 44 -12 c52 -14 102 -66 112 -117 l6 -35 159 0 159 0 0
-80 0 -80 -160 0 -160 0 0 -80 0 -80 160 0 160 0 0 -80 0 -80 -160 0 -160 0 0
-80 0 -80 160 0 160 0 0 -80 0 -80 -160 0 -160 0 0 -80 0 -80 160 0 160 0 0
-80 0 -80 -160 0 -160 0 0 -80 0 -80 160 0 160 0 0 -80 0 -80 -159 0 -159 0
-6 -35 c-10 -51 -60 -103 -112 -117 l-44 -12 0 -158 0 -158 -80 0 -80 0 0 160
0 160 -80 0 -80 0 0 -160 0 -160 -80 0 -80 0 0 160 0 160 -80 0 -80 0 0 -160
0 -160 -80 0 -80 0 0 160 0 160 -80 0 -80 0 0 -160 0 -160 -80 0 -80 0 0 160
0 160 -80 0 -80 0 0 -160 0 -160 -80 0 -80 0 0 158 0 158 -44 12 c-52 14 -102
66 -112 117 l-6 35 -159 0 -159 0 0 80 0 80 160 0 160 0 0 80 0 80 -160 0
-160 0 0 80 0 80 160 0 160 0 0 80 0 80 -160 0 -160 0 0 80 0 80 160 0 160 0
0 80 0 80 -160 0 -160 0 0 80 0 80 160 0 160 0 0 80 0 80 -160 0 -160 0 0 80
0 80 158 0 158 0 12 44 c14 52 66 102 117 112 l35 6 0 159 0 159 80 0 80 0 0
-160z m2474 68 c86 -26 166 -136 166 -228 0 -124 -116 -240 -240 -240 -63 0
-114 23 -165 75 -102 101 -102 229 0 330 70 71 145 90 239 63z m800 0 c86 -26
166 -136 166 -228 0 -124 -116 -240 -240 -240 -63 0 -114 23 -165 75 -102 101
-102 229 0 330 70 71 145 90 239 63z m166 -1028 l0 -240 -640 0 -640 0 0 240
0 240 640 0 640 0 0 -240z m-1126 -732 c86 -26 166 -136 166 -228 0 -124 -116
-240 -240 -240 -124 0 -240 116 -240 240 0 63 23 114 75 165 70 71 145 90 239
63z"/>
<path d="M1040 2240 l0 -720 720 0 720 0 0 720 0 720 -720 0 -720 0 0 -720z
m1200 0 l0 -480 -480 0 -480 0 0 480 0 480 480 0 480 0 0 -480z"/>
<path d="M4080 1280 l0 -400 296 0 c204 0 310 4 338 12 26 8 60 31 91 63 32
31 55 65 63 91 8 28 12 134 12 338 l0 296 -400 0 -400 0 0 -400z m463 146
c103 -43 128 -177 48 -257 -65 -65 -157 -65 -222 0 -124 123 13 325 174 257z"/>
</g>
</svg>
